<svg width="120" height="127" xmlns="http://www.w3.org/2000/svg" fill="none">

 <g>
  <title>Layer 1</title>
  <g stroke="null" id="Group 1171274216">
   <path stroke="null" fill="#303646" d="m112.66852,77.45942c7.64997,-24.9282 5.89679,-47.57771 -3.91576,-50.58903c-9.81265,-3.01132 -23.96894,14.75583 -31.61903,39.68403c-7.64997,24.92818 -5.8968,47.57757 3.91587,50.58902c9.81255,3.01144 23.96883,-14.75582 31.61892,-39.68402z" id="Vector"/>
   <path stroke="null" fill="white" d="m109.74559,76.56348c7.6501,-24.9282 6.47249,-47.40104 -2.63002,-50.19437c-9.10263,-2.79345 -22.68322,15.15037 -30.33331,40.07856c-7.64996,24.92819 -6.47248,47.40091 2.63015,50.19386c9.1025,2.7942 22.68322,-15.14987 30.33318,-40.07806z" id="Vector_2"/>
   <path stroke="null" fill="#CD2B31" d="m106.99772,75.72085c6.76138,-22.03249 5.72086,-41.89466 -2.32413,-44.36362c-8.04501,-2.46883 -20.04796,13.39057 -26.80935,35.42318c-6.7614,22.03249 -5.72087,41.89429 2.32426,44.36386c8.045,2.46835 20.04782,-13.39081 26.80923,-35.42342z" id="Vector_3"/>
   <path stroke="null" fill="white" d="m103.57813,74.66647c5.50424,-17.9357 4.65687,-34.10474 -1.8924,-36.11461c-6.54926,-2.00988 -16.3206,10.90063 -21.82473,28.83633c-5.50414,17.93569 -4.65688,34.10473 1.89239,36.11461c6.54939,2.00988 16.3206,-10.90063 21.82474,-28.83633z" id="Vector_4"/>
   <path stroke="null" fill="#CD2B31" d="m101.358,73.04501c4.47746,-14.56506 3.79526,-27.6978 -1.52358,-29.33287c-5.31884,-1.63494 -13.26022,8.84681 -17.73756,23.41186c-4.47746,14.56506 -3.79539,27.69781 1.52345,29.33286c5.31885,1.63508 13.26035,-8.8468 17.73769,-23.41185z" id="Vector_5"/>
   <path stroke="null" fill="white" d="m96.69999,72.55946c2.98972,-9.74213 2.52903,-18.52488 -1.0289,-19.61672c-3.55793,-1.09184 -8.86579,5.92063 -11.85551,15.66276c-2.98972,9.74213 -2.52901,18.52475 1.02892,19.61659c3.55792,1.09195 8.86578,-5.92052 11.85549,-15.66264z" id="Vector_6"/>
   <path stroke="null" fill="#CD2B31" d="m94.3936,70.90515c1.51022,-4.91294 1.27961,-9.34296 -0.51515,-9.8947c-1.79475,-0.55172 -4.47408,2.98373 -5.98444,7.89681c-1.51021,4.91294 -1.27962,9.34297 0.51514,9.89469c1.79489,0.55172 4.47411,-2.98373 5.98445,-7.8968z" id="Vector_7"/>
   <path stroke="null" fill="#BAB3B4" d="m85.257,63.9817c-1.07872,1.37001 -4.31914,5.07238 -4.24824,5.6989c0.07092,0.62651 4.26185,-0.62351 4.46835,-1.69824c0.20638,-1.07474 -0.22012,-4.00066 -0.22012,-4.00066z" id="Vector_8"/>
   <path stroke="null" fill="white" d="m8.12842,28.52794c0.39636,-0.15544 5.22623,-1.89389 6.31669,-1.6523c0.7395,0.20626 1.41508,0.59567 1.96443,1.13216c-3.12668,1.56927 -5.05613,2.53501 -6.48031,1.73695c-0.74025,-0.41788 -1.30182,-0.69068 -1.61681,-0.87397c-0.31498,-0.18341 -0.37465,-0.26494 -0.184,-0.34285z" id="Vector_9"/>
   <path stroke="null" fill="#1F1F39" d="m8.12848,28.52794c0.39636,-0.15544 5.22629,-1.89389 6.31663,-1.6523c-0.30501,0.63613 -4.41883,2.79483 -6.13262,1.99515c-0.28662,-0.17205 -0.37465,-0.26494 -0.18401,-0.34285z" opacity="0.09" id="Vector_10"/>
   <path stroke="null" fill="white" d="m6.24533,27.40089c0.3904,-0.15869 5.22629,-1.89389 6.31076,-1.65555c0.75523,0.217 1.44217,0.62427 1.99477,1.18273c-3.12666,1.56927 -5.07955,2.50729 -6.50929,1.691c-0.73708,-0.42375 -1.29721,-0.69205 -1.61218,-0.87534c-0.31499,-0.18341 -0.37609,-0.26943 -0.18406,-0.34285z" id="Vector_11"/>
   <path stroke="null" fill="#1F1F39" d="m6.2452,27.40089c0.39041,-0.15856 5.22629,-1.89389 6.31076,-1.65542c-0.30501,0.63613 -2.56998,2.1376 -6.1267,1.99827c-0.29575,-0.16918 -0.37609,-0.26943 -0.18406,-0.34285z" opacity="0.09" id="Vector_12"/>
   <path stroke="null" fill="white" d="m4.11252,26.06047c0.82444,-0.05244 1.63492,-0.23834 2.39975,-0.55047l0.03191,-0.00974c1.61738,-0.63163 3.33458,-1.21382 3.87908,-1.09533c0.81227,0.26344 1.54578,0.72577 2.13382,1.34491c-3.12529,1.57376 -5.21719,2.34973 -6.6497,1.52433c-0.73708,-0.42387 -1.29721,-0.69206 -1.6122,-0.87547l-0.09801,-0.05993c-0.21382,-0.12935 -0.25388,-0.21188 -0.08466,-0.2783z" id="Vector_13"/>
   <path stroke="null" fill="#1F1F39" d="m4.11252,26.06047c0.82444,-0.05244 1.63492,-0.23834 2.39975,-0.55047l0.03191,-0.00974c1.65626,-0.61852 3.39864,-1.18348 3.94314,-1.06487c-0.30498,0.63612 -3.38366,1.98628 -6.13126,1.99964l-0.15749,-0.09164c-0.21521,-0.13397 -0.25527,-0.2165 -0.08606,-0.28292z" opacity="0.09" id="Vector_14"/>
   <path stroke="null" fill="white" d="m1.99447,24.75102c0.39636,-0.15544 5.22624,-1.89389 6.31526,-1.65693c0.80099,0.25795 1.52668,0.70817 2.11365,1.31108c-3.1267,1.56927 -5.20292,2.38031 -6.62809,1.56265c-0.74025,-0.41788 -1.30184,-0.69069 -1.61682,-0.87397c-0.31499,-0.1834 -0.37603,-0.26955 -0.18401,-0.34284z" id="Vector_15"/>
   <path stroke="null" fill="#1F1F39" d="m1.99455,24.7509c0.39636,-0.15544 5.22623,-1.89389 6.31524,-1.65692c-0.30498,0.63613 -3.787,1.0374 -6.13125,1.99977c-0.28662,-0.17205 -0.37603,-0.26943 -0.184,-0.34284z" opacity="0.23" id="Vector_16"/>
   <path stroke="null" fill="#543237" d="m6.86883,21.89714c0.11749,0.31063 0.31604,0.58419 0.57498,0.79219c1.50345,1.33718 76.20958,46.47575 76.39836,46.7523c0.01386,0.04569 0.0984,0.04482 0.20014,0.01884c0.14184,-0.03733 0.2768,-0.09688 0.39989,-0.17641c0.6254,-0.36969 1.39137,-1.21082 0.55573,-1.95869c-0.07516,-0.06842 -0.15569,-0.13058 -0.24097,-0.18591c0,0 -74.34156,-46.43093 -75.80986,-46.58737c-1.1644,-0.12435 -2.36678,0.44585 -2.07828,1.34504z" id="Vector_17"/>
   <path stroke="null" fill="white" d="m14.27119,18.38941c0.0387,0.422 0.68095,5.51561 1.38674,6.3776c0.51964,0.56733 1.17411,0.99407 1.90288,1.24066c-0.01348,-3.48539 -0.01773,-5.66244 -1.38661,-6.55714c-0.71029,-0.46682 -1.20408,-0.845 -1.51134,-1.03565c-0.30726,-0.19065 -0.41476,-0.23273 -0.39166,-0.02547z" id="Vector_18"/>
   <path stroke="null" fill="#1F1F39" d="m14.27107,18.38928c0.03858,0.422 0.68082,5.51562 1.38674,6.3776c0.43087,-0.54985 0.4893,-5.20848 -0.99932,-6.36586c-0.28766,-0.19165 -0.41064,-0.21899 -0.38742,-0.01174z" opacity="0.09" id="Vector_19"/>
   <path stroke="null" fill="white" d="m12.40889,17.21617c0.0387,0.42188 0.68082,5.51549 1.38674,6.37747c0.53549,0.57382 1.20945,1.00044 1.95706,1.23904c-0.01336,-3.48526 -0.06742,-5.66219 -1.44355,-6.5645c-0.71029,-0.46695 -1.2042,-0.845 -1.51147,-1.03578c-0.30726,-0.19065 -0.41051,-0.21899 -0.38879,-0.01623z" id="Vector_20"/>
   <path stroke="null" fill="#1F1F39" d="m12.40902,17.21604c0.03858,0.42188 0.68082,5.51549 1.38661,6.3776c0.43099,-0.54985 0.738,-3.26028 -1.00069,-6.37035c-0.28479,-0.18254 -0.40777,-0.21 -0.38592,-0.00724z" opacity="0.09" id="Vector_21"/>
   <path stroke="null" fill="white" d="m10.24648,15.92482c0.3293,0.75661 0.53223,1.56216 0.60073,2.38444c0,0 0.00694,0.02285 0.01111,0.03646c0.17016,1.72296 0.42741,3.51897 0.78401,3.95383c0.60238,0.60341 1.3455,1.04714 2.16241,1.29135c-0.01336,-3.48538 -0.2728,-5.7145 -1.64893,-6.61682c-0.71168,-0.47144 -1.20553,-0.84962 -1.50682,-1.03715l-0.098,-0.05993c-0.23029,-0.13434 -0.32076,-0.13671 -0.30451,0.04782z" id="Vector_22"/>
   <path stroke="null" fill="#1F1F39" d="m10.24647,15.92469c0.32929,0.75661 0.53222,1.56216 0.60073,2.38443c0,0 0.00693,0.02285 0.0111,0.03658c0.19952,1.7538 0.48513,3.56117 0.84035,3.99141c0.43095,-0.54972 0.23341,-3.91924 -0.99931,-6.36573l-0.15113,-0.10363c-0.22752,-0.1251 -0.31797,-0.1276 -0.30173,0.05693z" opacity="0.09" id="Vector_23"/>
   <path stroke="null" fill="white" d="m8.11742,14.62847c0.04002,0.4265 0.68223,5.52011 1.39128,6.3761c0.59116,0.60017 1.32072,1.04589 2.12454,1.29785c-0.01342,-3.48526 -0.24404,-5.71813 -1.61107,-6.62331c-0.71029,-0.46682 -1.20413,-0.845 -1.51138,-1.03565c-0.30725,-0.19078 -0.4106,-0.21912 -0.39337,-0.01498z" id="Vector_24"/>
   <path stroke="null" fill="#1F1F39" d="m8.11741,14.62835c0.04002,0.4265 0.68224,5.51998 1.39129,6.3761c0.43093,-0.54985 -0.79454,-3.84097 -0.99931,-6.36574c-0.28621,-0.18715 -0.40922,-0.2145 -0.39199,-0.01036z" opacity="0.23" id="Vector_25"/>
   <path stroke="null" fill="#1F1F39" d="m6.86899,21.89714c0.11749,0.31063 0.31604,0.58419 0.57498,0.79219c1.50345,1.33718 76.20954,46.47575 76.39832,46.7523c0.05518,0.08302 0.31351,0.01435 0.60017,-0.15756c-8.75105,-5.61288 -70.62675,-43.42848 -77.57348,-47.38693z" opacity="0.47" id="Vector_26"/>
   <path stroke="null" fill="white" d="m80.82187,69.96677c-0.0769,0.9108 9.41189,2.59044 10.15401,2.08054l0.03197,-0.00974c0.50715,-0.57794 -5.26678,-8.15325 -5.74647,-8.04225c-0.47968,0.11112 -0.70092,2.77547 -1.38412,4.02013l-0.02284,0.00699c-0.68557,1.22044 -2.98386,1.30147 -3.03255,1.94434z" id="Vector_27"/>
   <path stroke="null" fill="#1F1F39" d="m80.82175,69.96677c-0.07691,0.91068 9.41188,2.59032 10.15401,2.08041c-2.79495,-2.19054 -5.52247,-3.61897 -7.12009,-4.02026c-0.68694,1.21594 -2.98522,1.29685 -3.03391,1.93984z" opacity="0.22" id="Vector_28"/>
  </g>
 </g>
</svg>