<?xml version="1.0" standalone="no"?>
<!DOCTYPE svg PUBLIC "-//W3C//DTD SVG 20010904//EN"
 "http://www.w3.org/TR/2001/REC-SVG-20010904/DTD/svg10.dtd">
<svg version="1.0" xmlns="http://www.w3.org/2000/svg"
 width="64.000000pt" height="64.000000pt" viewBox="0 0 64.000000 64.000000"
 preserveAspectRatio="xMidYMid meet">

<g transform="translate(0.000000,64.000000) scale(0.100000,-0.100000)"
fill="#029491" stroke="none">
<path d="M266 584 c-3 -9 -6 -18 -6 -20 0 -2 27 -4 61 -4 52 0 60 2 55 16 -3
9 -6 18 -6 20 0 2 -22 4 -49 4 -35 0 -51 -4 -55 -16z"/>
<path d="M231 523 c-88 -31 -161 -136 -161 -233 0 -132 118 -250 250 -250 60
0 130 30 175 75 188 188 -12 497 -264 408z m167 -39 c134 -55 174 -223 79
-331 -101 -115 -283 -88 -348 52 -78 167 99 351 269 279z"/>
<path d="M307 390 c-4 -33 -12 -69 -19 -80 -17 -26 0 -55 32 -55 32 0 49 29
32 55 -7 11 -15 47 -19 80 -3 33 -9 60 -13 60 -4 0 -10 -27 -13 -60z"/>
</g>
</svg>
