<?xml version="1.0" standalone="no"?>
<!DOCTYPE svg PUBLIC "-//W3C//DTD SVG 20010904//EN"
 "http://www.w3.org/TR/2001/REC-SVG-20010904/DTD/svg10.dtd">
<svg version="1.0" xmlns="http://www.w3.org/2000/svg"
 width="920.000000pt" height="920.000000pt" viewBox="0 0 920.000000 920.000000"
 preserveAspectRatio="xMidYMid meet">

<g transform="translate(0.000000,920.000000) scale(0.100000,-0.100000)"
fill="#029491" stroke="none">
<path d="M4461 8890 c-71 -26 -93 -41 -291 -199 -537 -429 -1100 -704 -1733
-845 -254 -57 -503 -86 -1002 -116 -99 -7 -205 -18 -235 -27 -156 -43 -273
-164 -310 -322 -14 -61 -16 -28 35 -886 51 -854 54 -914 61 -985 108 -1210
569 -2331 1339 -3255 257 -308 595 -633 1111 -1067 24 -20 77 -65 116 -100
204 -180 759 -659 801 -691 97 -74 257 -98 378 -57 99 34 80 19 529 410 161
140 456 396 654 569 445 387 551 485 729 676 508 544 883 1128 1164 1815 134
327 267 785 332 1145 61 340 84 593 126 1395 4 63 8 133 10 155 2 22 14 215
26 428 18 312 20 398 10 440 -37 165 -158 292 -317 331 -32 8 -135 20 -229 25
-93 6 -235 16 -315 21 -611 42 -1125 178 -1640 436 -291 146 -497 280 -805
524 -220 175 -255 192 -390 197 -81 3 -110 0 -154 -17z m202 -282 c12 -6 76
-55 142 -108 490 -393 924 -637 1445 -810 413 -138 756 -201 1280 -235 387
-25 397 -26 430 -46 17 -11 39 -33 51 -51 24 -39 24 -30 -16 -693 -14 -225
-32 -527 -40 -670 -29 -502 -45 -662 -90 -925 -137 -792 -429 -1517 -879
-2185 l-81 -120 -6 53 c-9 67 -30 99 -82 123 -54 24 -71 24 -123 -2 -72 -34
-84 -73 -84 -267 0 -126 4 -171 16 -202 16 -39 16 -42 -3 -63 -288 -328 -378
-416 -840 -818 -191 -167 -397 -346 -458 -399 -376 -329 -643 -558 -662 -568
-24 -13 -91 -16 -118 -6 -16 6 -236 196 -1170 1009 -359 312 -504 450 -685
654 l-138 154 19 31 c17 27 19 52 19 200 0 151 -2 174 -21 212 -15 31 -32 48
-63 63 -52 26 -69 26 -123 2 -52 -24 -73 -56 -82 -123 l-7 -53 -106 160 c-444
671 -728 1390 -857 2175 -47 286 -55 370 -101 1145 -11 182 -27 449 -36 595
-9 146 -17 320 -18 387 -1 116 0 122 24 148 50 54 46 53 550 85 985 63 1816
382 2580 990 91 72 179 140 195 151 34 21 104 25 138 7z"/>
<path d="M4505 8199 c-16 -5 -149 -92 -295 -193 -312 -218 -474 -317 -694
-425 -278 -136 -572 -242 -876 -315 -226 -55 -423 -84 -751 -112 -84 -7 -124
-31 -150 -89 -25 -57 -18 -105 25 -149 47 -51 79 -55 262 -40 567 49 1072 184
1564 420 286 138 469 249 828 502 95 67 176 122 181 122 6 0 108 -69 228 -153
350 -245 480 -323 764 -461 198 -96 401 -178 569 -230 170 -52 197 -52 251 2
43 43 54 76 44 128 -12 68 -54 97 -215 149 -200 66 -368 133 -545 220 -256
126 -379 201 -742 457 -117 82 -228 155 -248 163 -38 16 -152 19 -200 4z"/>
<path d="M6856 7190 c-69 -22 -115 -103 -96 -169 29 -104 65 -116 418 -145
167 -13 202 -8 248 35 54 50 52 149 -5 203 -32 31 -57 36 -321 62 -91 8 -176
17 -190 19 -14 2 -38 0 -54 -5z"/>
<path d="M4460 6604 c-337 -65 -599 -300 -692 -620 -20 -68 -23 -101 -23 -239
0 -154 2 -163 33 -255 46 -133 104 -230 196 -327 l79 -84 -138 -514 c-122
-456 -137 -521 -132 -570 7 -68 48 -146 100 -191 77 -65 68 -64 717 -64 649 0
640 -1 717 64 54 47 94 124 100 194 5 50 -8 106 -102 452 -59 217 -121 448
-138 512 l-31 117 70 73 c117 121 177 229 220 397 85 334 -45 688 -331 899
-78 57 -149 93 -255 127 -73 24 -104 28 -225 31 -77 1 -151 0 -165 -2z m284
-299 c148 -39 289 -150 359 -282 48 -92 67 -169 67 -273 0 -168 -46 -273 -184
-419 -152 -161 -155 -189 -60 -542 36 -134 90 -336 120 -449 30 -113 62 -227
70 -254 7 -27 14 -51 14 -53 0 -2 -239 -3 -531 -3 -421 0 -530 3 -526 13 2 6
28 100 56 207 29 107 88 327 132 488 110 408 108 433 -43 587 -99 100 -157
199 -178 302 -19 88 -8 243 22 324 63 169 214 307 388 353 73 19 221 20 294 1z"/>
<path d="M3125 2953 c-33 -9 -74 -43 -90 -73 -12 -23 -15 -70 -15 -212 0 -165
2 -186 20 -216 44 -72 139 -92 208 -43 54 38 64 85 60 279 -3 154 -5 173 -24
198 -40 55 -104 81 -159 67z"/>
<path d="M3845 2953 c-33 -8 -74 -42 -91 -74 -12 -25 -15 -65 -12 -224 3 -190
3 -194 28 -221 51 -55 116 -67 180 -34 65 33 74 62 78 244 4 177 -5 230 -47
270 -41 39 -84 52 -136 39z"/>
<path d="M4545 2946 c-16 -7 -41 -26 -55 -41 -25 -26 -25 -29 -28 -227 -3
-194 -3 -201 20 -233 43 -64 128 -83 188 -42 70 47 72 54 72 255 0 99 -3 191
-7 204 -10 33 -34 57 -77 79 -43 22 -71 23 -113 5z"/>
<path d="M5274 2949 c-46 -13 -91 -69 -99 -122 -4 -25 -5 -111 -3 -193 4 -173
14 -201 80 -235 70 -36 147 -14 188 54 18 29 20 51 20 217 0 213 -7 236 -83
270 -46 22 -57 22 -103 9z"/>
<path d="M5985 2946 c-37 -16 -70 -52 -84 -89 -6 -16 -11 -100 -11 -191 0
-148 2 -165 23 -206 52 -102 187 -106 247 -8 18 30 20 51 20 218 0 213 -7 236
-83 270 -49 23 -71 24 -112 6z"/>
</g>
</svg>
