<?xml version="1.0" standalone="no"?>
<!DOCTYPE svg PUBLIC "-//W3C//DTD SVG 20010904//EN"
 "http://www.w3.org/TR/2001/REC-SVG-20010904/DTD/svg10.dtd">
<svg version="1.0" xmlns="http://www.w3.org/2000/svg"
 width="100.000000pt" height="100.000000pt" viewBox="0 0 100.000000 100.000000"
 preserveAspectRatio="xMidYMid meet">

<g transform="translate(0.000000,100.000000) scale(0.100000,-0.100000)"
fill="#029491" stroke="none">
<path d="M314 902 c-93 -33 -166 -100 -207 -189 -34 -74 -31 -199 6 -275 35
-72 93 -130 165 -165 49 -24 69 -28 142 -28 73 0 93 4 144 29 l58 29 129 -129
129 -129 27 28 28 27 -128 128 -129 129 30 47 c106 167 39 393 -145 482 -72
36 -176 42 -249 16z m240 -56 c105 -51 161 -144 161 -266 0 -85 -21 -142 -74
-203 -82 -92 -237 -121 -353 -64 -160 79 -215 278 -118 430 80 126 246 170
384 103z"/>
<path d="M230 605 c-26 -32 13 -81 48 -59 22 14 27 41 12 59 -16 19 -44 19
-60 0z"/>
<path d="M390 605 c-15 -18 -10 -45 13 -59 34 -22 73 27 47 59 -16 19 -44 19
-60 0z"/>
<path d="M550 605 c-15 -18 -10 -45 13 -59 34 -22 73 27 47 59 -16 19 -44 19
-60 0z"/>
</g>
</svg>
