<svg width="398" height="112" viewBox="0 0 398 112" fill="none" xmlns="http://www.w3.org/2000/svg">
<path d="M54.4343 110.298L3.81699 83.6075C2.98487 83.1696 2.24738 82.5718 1.64683 81.8483C1.04628 81.1247 0.594479 80.2898 0.317337 79.3912C0.0401951 78.4927 -0.0568325 77.5483 0.031823 76.6122C0.120479 75.6761 0.393066 74.7667 0.83396 73.9362L37.8235 3.81925C38.7144 2.14096 40.2334 0.883497 42.0485 0.321609C43.8636 -0.240279 45.8273 -0.0609113 47.5106 0.820519L79.6802 17.7767L91 56.509L64.1213 107.299C63.2304 108.977 61.7115 110.235 59.8964 110.797C58.0813 111.359 56.1176 111.179 54.4343 110.298Z" fill="#029491"/>
<g opacity="0.3">
<path d="M79.6803 17.7761L69.2554 37.4955C68.4342 39.0601 68.2656 40.8861 68.7862 42.5746C69.3069 44.2631 70.4746 45.677 72.0343 46.5074L91.0001 56.5084L79.6803 17.7761Z" fill="white"/>
</g>
<g opacity="0.2">
<path d="M68.5477 39.3643C67.7699 40.8641 67.5281 42.5847 67.8622 44.2409C68.1962 45.897 69.0862 47.3893 70.3846 48.4704L70.9341 48.9257C73.1792 50.6841 87.9374 62.1923 88.2043 61.8155C88.4712 61.4387 90.9989 56.5088 90.9989 56.5088L72.0331 46.5078C72.0331 46.5078 67.3231 43.8388 68.5477 39.3643Z" fill="black"/>
</g>
<path d="M65.3769 34.4503C65.2356 34.7015 59.8975 32.1424 53.4291 28.7198C46.9606 25.2971 41.8266 22.3455 41.9993 22.0786C42.1721 21.8117 47.4944 24.3865 53.9629 27.8091C60.4313 31.2318 65.5496 34.1991 65.3769 34.4503Z" fill="#FAFAFA"/>
<path d="M74.6097 53.6515C74.4841 53.9027 65.7391 49.5538 55.0944 43.9331C44.4497 38.3125 35.9402 33.4925 36.0658 33.2413C36.1914 32.9901 44.9364 37.3391 55.5811 42.9597C66.2258 48.5804 74.751 53.3375 74.6097 53.6515Z" fill="#FAFAFA"/>
<path d="M73.1646 64.7361C73.039 64.9873 63.5247 60.2301 51.9223 54.0914C40.3199 47.9526 31.0097 42.8029 31.151 42.5517C31.2923 42.3005 40.8066 47.0577 52.409 53.1808C64.0114 59.3038 73.3059 64.4849 73.1646 64.7361Z" fill="#FAFAFA"/>
<path d="M68.5348 73.5122C68.3935 73.7634 58.8792 69.0062 47.2767 62.8832C35.6743 56.7601 26.3798 51.5791 26.5211 51.3279C26.6624 51.0767 36.161 55.8338 47.7634 61.9569C59.3659 68.0799 68.6918 73.261 68.5348 73.5122Z" fill="#FAFAFA"/>
<path d="M63.886 82.3042C63.7604 82.5554 54.2461 77.7982 42.6437 71.6594C31.0413 65.5207 21.7468 60.371 21.8724 60.1198C21.998 59.8686 31.528 64.6415 43.1304 70.7488C54.7328 76.8562 63.9802 82.053 63.886 82.3042Z" fill="#FAFAFA"/>
<path d="M59.2711 91.0803C59.1298 91.3315 49.6155 86.5744 38.0288 80.4513C26.442 74.3282 17.1161 69.1472 17.2574 68.896C17.3987 68.6448 26.8973 73.4019 38.4998 79.525C50.1022 85.6481 59.3967 90.8291 59.2711 91.0803Z" fill="#FAFAFA"/>
<path d="M260.84 78.2402C259.666 78.0718 258.607 77.4443 257.895 76.4954C257.183 75.5465 256.878 74.3539 257.045 73.1796L262.579 34.6746C262.753 33.7065 263.303 32.8469 264.11 32.284C264.916 31.721 265.913 31.5006 266.882 31.6709L270.496 32.1959C271.203 32.305 271.926 32.2164 272.585 31.9399C273.244 31.6635 273.814 31.2099 274.232 30.6295L275.239 29.1579C275.656 28.5775 276.226 28.124 276.885 27.8475C277.544 27.571 278.267 27.4824 278.974 27.5915L296.187 30.0616C296.834 30.1477 297.449 30.3955 297.976 30.782C298.502 31.1686 298.923 31.6815 299.199 32.2734L299.853 33.7365C300.128 34.3273 300.548 34.8394 301.072 35.2259C301.597 35.6124 302.211 35.8608 302.857 35.9483L324.76 39.0983C325.736 39.2065 326.63 39.6977 327.245 40.4641C327.86 41.2305 328.145 42.2096 328.039 43.1863L322.376 82.5606C322.293 83.1417 322.096 83.7007 321.796 84.2055C321.497 84.7104 321.101 85.1513 320.631 85.503C320.161 85.8547 319.626 86.1103 319.057 86.2552C318.488 86.4001 317.896 86.4314 317.315 86.3475L260.84 78.2402Z" fill="#455A64"/>
<g opacity="0.3">
<path d="M260.84 78.2402C259.666 78.0718 258.607 77.4443 257.895 76.4954C257.183 75.5465 256.878 74.3539 257.045 73.1796L262.579 34.6746C262.753 33.7065 263.303 32.8469 264.11 32.284C264.916 31.721 265.913 31.5006 266.882 31.6709L270.496 32.1959C271.203 32.305 271.926 32.2164 272.585 31.9399C273.244 31.6635 273.814 31.2099 274.232 30.6295L275.239 29.1579C275.656 28.5775 276.226 28.124 276.885 27.8475C277.544 27.571 278.267 27.4824 278.974 27.5915L296.187 30.0616C296.834 30.1477 297.449 30.3955 297.976 30.782C298.502 31.1686 298.923 31.6815 299.199 32.2734L299.853 33.7365C300.128 34.3273 300.548 34.8394 301.072 35.2259C301.597 35.6124 302.211 35.8608 302.857 35.9483L324.76 39.0983C325.736 39.2065 326.63 39.6977 327.245 40.4641C327.86 41.2305 328.145 42.2096 328.039 43.1863L322.376 82.5606C322.293 83.1417 322.096 83.7007 321.796 84.2055C321.497 84.7104 321.101 85.1513 320.631 85.503C320.161 85.8547 319.626 86.1103 319.057 86.2552C318.488 86.4001 317.896 86.4314 317.315 86.3475L260.84 78.2402Z" fill="black"/>
</g>
<path d="M300.662 35.6472L286.736 33.6075L285.824 31.103C285.511 30.2852 284.982 29.5672 284.294 29.0248C283.607 28.4825 282.785 28.136 281.917 28.0219L268.301 26.0683C267.185 25.8696 266.035 26.1198 265.102 26.7645C264.169 27.4091 263.528 28.3961 263.318 29.5108L263.095 31.103L257.07 72.9044C256.932 74.1883 257.307 75.4749 258.113 76.4839C258.919 77.4929 260.091 78.1427 261.373 78.292L316.721 86.3131C317.994 86.5361 319.304 86.2456 320.364 85.5053C321.423 84.765 322.147 83.6351 322.375 82.3628L328.056 42.8766C328.118 42.4576 328.096 42.0306 327.993 41.6199C327.889 41.2093 327.705 40.8233 327.451 40.4841C327.198 40.1449 326.879 39.8593 326.515 39.6436C326.15 39.4279 325.747 39.2865 325.327 39.2275L300.662 35.6472Z" fill="#455A64"/>
<path d="M311.846 52.8257L278.921 48.0928L276.93 61.9444L309.855 66.6773L311.846 52.8257Z" fill="white"/>
<path d="M305.878 58.2132C305.878 58.3337 300.782 57.7054 294.534 56.8104C288.286 55.9153 283.234 55.0891 283.26 54.96C283.286 54.8309 288.355 55.4678 294.603 56.3628C300.851 57.2579 305.895 58.0927 305.878 58.2132Z" fill="#263238"/>
<path d="M305.456 61.1651C305.456 61.2856 300.361 60.6573 294.113 59.7623C287.865 58.8672 282.813 58.041 282.83 57.9119C282.847 57.7828 287.925 58.4197 294.173 59.3147C300.422 60.2098 305.474 61.0446 305.456 61.1651Z" fill="#263238"/>
<path d="M360.753 61.1309C360.391 61.2676 360.005 61.3315 359.618 61.3189C359.231 61.3063 358.851 61.2176 358.498 61.0577C358.146 60.8978 357.828 60.6699 357.564 60.3871C357.299 60.1043 357.093 59.7722 356.958 59.4097L347.835 35.5699C347.73 35.2682 347.686 34.9488 347.706 34.6301C347.725 34.3113 347.807 33.9995 347.947 33.7125C348.086 33.4255 348.282 33.1689 348.521 32.9574C348.76 32.746 349.039 32.5838 349.341 32.4802L351.578 31.6196C352.016 31.453 352.401 31.1703 352.69 30.8019C352.98 30.4335 353.164 29.9932 353.222 29.5282L353.326 28.3664C353.378 27.8995 353.56 27.4566 353.851 27.0872C354.141 26.7178 354.528 26.4366 354.969 26.275L365.607 22.1956C366.007 22.041 366.439 21.9883 366.864 22.0424C367.289 22.0965 367.694 22.2556 368.043 22.5054L368.903 23.1336C369.251 23.382 369.654 23.5402 370.078 23.5943C370.501 23.6484 370.932 23.5966 371.33 23.4435L384.894 18.2796C385.49 18.0304 386.16 18.0271 386.759 18.2707C387.357 18.5142 387.834 18.9846 388.087 19.5792L397.416 43.9612C397.554 44.3233 397.619 44.7091 397.607 45.0963C397.595 45.4836 397.506 45.8646 397.346 46.2174C397.186 46.5703 396.958 46.888 396.675 47.1521C396.391 47.4163 396.058 47.6217 395.695 47.7566L360.753 61.1309Z" fill="#029491"/>
<g opacity="0.3">
<path d="M360.752 61.1307C360.39 61.2674 360.004 61.3312 359.617 61.3187C359.23 61.3061 358.85 61.2173 358.497 61.0574C358.145 60.8976 357.827 60.6697 357.563 60.3869C357.298 60.1041 357.092 59.7719 356.957 59.4094L347.834 35.5697C347.729 35.2679 347.685 34.9486 347.705 34.6298C347.724 34.3111 347.806 33.9993 347.946 33.7123C348.086 33.4252 348.281 33.1686 348.52 32.9572C348.759 32.7457 349.038 32.5836 349.34 32.48L351.578 31.6193C352.016 31.4527 352.4 31.1701 352.689 30.8016C352.979 30.4332 353.163 29.9929 353.221 29.528L353.325 28.3661C353.377 27.8993 353.559 27.4563 353.85 27.087C354.14 26.7176 354.527 26.4364 354.968 26.2747L365.606 22.1953C366.006 22.0407 366.438 21.9881 366.863 22.0422C367.288 22.0963 367.693 22.2554 368.042 22.5051L368.902 23.1334C369.25 23.3817 369.653 23.54 370.077 23.5941C370.5 23.6481 370.931 23.5963 371.329 23.4432L384.893 18.2794C385.489 18.0301 386.159 18.0269 386.758 18.2704C387.356 18.5139 387.833 18.9844 388.086 19.579L397.415 43.9609C397.553 44.323 397.618 44.7088 397.606 45.0961C397.594 45.4833 397.505 45.8643 397.345 46.2172C397.185 46.57 396.957 46.8877 396.674 47.1519C396.39 47.4161 396.057 47.6215 395.694 47.7564L360.752 61.1307Z" fill="black"/>
</g>
<path d="M369.979 23.9768L361.372 27.2645L360.047 26.1198C359.608 25.7492 359.077 25.5053 358.509 25.4143C357.942 25.3233 357.361 25.3887 356.828 25.6034L348.394 28.8308C347.691 29.0804 347.116 29.5979 346.793 30.2703C346.471 30.9427 346.427 31.7155 346.673 32.4197L347.051 33.4008L356.957 59.2889C357.29 60.071 357.917 60.6904 358.704 61.0126C359.49 61.3349 360.372 61.334 361.157 61.0102L395.419 47.894C396.224 47.6164 396.885 47.0308 397.258 46.2658C397.631 45.5009 397.685 44.6192 397.408 43.8146L388.044 19.3552C387.842 18.8314 387.44 18.4093 386.927 18.1817C386.413 17.9542 385.831 17.9398 385.307 18.1417L369.979 23.9768Z" fill="#029491"/>
<path d="M381.878 30.2353L361.487 38.0422L364.771 46.6182L385.162 38.8112L381.878 30.2353Z" fill="white"/>
<path d="M380.176 35.2515C377.928 36.3555 375.614 37.3212 373.248 38.1432C370.94 39.11 368.574 39.9349 366.165 40.6132C368.403 39.5193 370.702 38.5539 373.05 37.7215C375.375 36.7577 377.754 35.9329 380.176 35.2515Z" fill="#263238"/>
<path d="M380.875 37.0845C378.637 38.1769 376.338 39.1395 373.99 39.9676C371.657 40.9275 369.269 41.7466 366.838 42.4205C369.086 41.3164 371.4 40.3507 373.766 39.5287C376.084 38.5712 378.458 37.7549 380.875 37.0845Z" fill="#263238"/>
</svg>
